<?xml version="1.0" encoding="utf-8"?>
<svg xmlns="http://www.w3.org/2000/svg" viewBox="95.675 89.037 141.51 37.634">
  <path stroke-width="3" stroke="black" transform-origin="154.623 106.565 0" d="M 154.465 100 L 154.623 113.133"/>
  <ellipse id="key-c" stroke-width="2" stroke="black" fill="transparent" cx="105.872" cy="105.978" rx="5.321" ry="5.321"/>
  <ellipse id="key-a" stroke-width="2" stroke="black" fill="transparent" cx="123.146" cy="106.342" rx="6.342" ry="6.342"/>
  <ellipse id="key-g" stroke-width="2" stroke="black" fill="transparent" cx="140.108" cy="106.342" rx="6.342" ry="6.342"/>
  <ellipse id="key-f" stroke-width="2" stroke="black" fill="transparent" cx="169.354" cy="106.342" rx="6.342" ry="6.342"/>
  <ellipse id="key-e" stroke-width="2" stroke="black" fill="transparent" cx="186.158" cy="106.342" rx="6.342" ry="6.342"/>
  <ellipse id="key-d" stroke-width="2" stroke="black" fill="transparent" cx="203.12" cy="106.342" rx="6.342" ry="6.342"/>
  <path id="key-g♯" stroke-width="2" stroke="black" fill="transparent" transform-origin="144.656 94.315 0" d="M 148.446 91.855 C 148.446 91.855 128.758 90.89 139.838 95.118 C 150.915 99.344 153.848 94.79 152.584 93.239 C 151.318 91.686 149.682 91.96 148.446 91.855 Z" transform="matrix(-1, 0, 0, -1, 0, 0)"/>
  <path id="key-b-thumb" stroke-width="2" stroke="black" fill="transparent" transform-origin="119.899 118.756 0" d="M 124.33 121.576 C 124.33 121.576 101.317 122.681 114.267 117.837 C 127.216 112.994 130.644 118.212 129.165 119.99 C 127.686 121.769 125.773 121.455 124.33 121.576 Z" transform="matrix(-1, 0, 0, -1, 0, 0)"/>
  <path id="key-b♭-shake" stroke-width="2" stroke="black" fill="transparent" transform-origin="160.087 117.003 0" d="M 162.229 114.799 C 162.229 114.799 151.104 113.935 157.365 117.722 C 163.624 121.508 165.281 117.429 164.566 116.039 C 163.851 114.648 162.927 114.894 162.229 114.799 Z" transform="matrix(0, 1, -1, 0, 0, 0)"/>
  <path id="key-d♯-touch" stroke-width="2" stroke="black" fill="transparent" transform-origin="217.962 106.407 0" d="M 220.867 103.332 C 220.867 103.332 205.779 102.126 214.27 107.411 C 222.759 112.694 225.006 107.002 224.037 105.062 C 223.067 103.121 221.814 103.464 220.867 103.332 Z" transform="matrix(0, 1, -1, 0, 0, 0)"/>
  <ellipse id="key-c-roller" stroke-width="2" stroke="black" fill="transparent" cx="228.292" cy="102.841" rx="4.372" ry="1.816"/>
  <path id="key-c♯-touch" stroke-width="2" stroke="black" fill="transparent" transform-origin="228.771 109.763 0" d="M 230.938 112.377 C 230.938 112.377 219.685 113.402 226.017 108.909 C 232.349 104.42 234.024 109.258 233.301 110.906 C 232.579 112.556 231.644 112.265 230.938 112.377 Z" transform="matrix(-1, 0, 0, -1, 0, 0)"/>
  <path id="key-b♭-thumb" stroke-width="2" stroke="black" fill="transparent" transform-origin="105.295 118.44 0" d="M 107.289 116.237 C 107.289 116.237 96.931 115.372 102.761 119.159 C 108.588 122.946 110.131 118.866 109.465 117.476 C 108.799 116.086 107.939 116.331 107.289 116.237 Z" transform="matrix(0, 1, -1, 0, 0, 0)"/>
  <path id="key-d-trill" stroke-width="2" stroke="black" fill="transparent" transform-origin="177.125 115.949 0" d="M 178.932 113.745 C 178.932 113.745 169.727 114.691 175.188 116.242 C 181.189 117.946 180.967 116.589 180.903 114.985 C 180.839 113.381 179.521 113.84 178.932 113.745 Z" transform="matrix(0, 1, -1, 0, 0, 0)"/>
  <path id="key-d♯-trill" stroke-width="2" stroke="black" fill="transparent" transform-origin="194.134 115.821 0" d="M 195.941 113.617 C 195.941 113.617 186.736 114.563 192.197 116.114 C 198.198 117.818 197.976 116.461 197.912 114.857 C 197.848 113.253 196.53 113.712 195.941 113.617 Z" transform="matrix(0, 1, -1, 0, 0, 0)"/>
</svg>
